# xmcd
#
# Track frame offsets:
#	150
#	9159
#	19236
#	34011
#	45869
#	57437
#	67286
#	80315
#	91825
#	102225
#	112678
#	126050
#	145459
#	157025
#	168161
#	180917
#	193521
#	202381
#	212472
#	226999
#	238746
#	250307
#	259915
#	273462
#	284979
#	295382
#	305910
#	319117
#
# Disc length: 4513 seconds
#
# Revision: 1
# Processed by: cddbd v1.5.2PL0 Copyright (c) Steve Scherf et al.
# Submitted via: EZCDAudioConverter 7.0.6.1
#
DISCID=9a119f1c
DTITLE=Music Machine - The Ultimate Turn On 1/2
DYEAR=2006
DGENRE=
TTITLE0=Talk Talk [Mono]
TTITLE1=Trouble [Mono]
TTITLE2=Cherry Cherry [Mono]
TTITLE3=Taxman [Mono]
TTITLE4=Some Other Drum [Mono]
TTITLE5=Masculine Intuition [Mono]
TTITLE6=The People In Me [Mono]
TTITLE7=CC Rider [Mono]
TTITLE8=Wrong [Mono]
TTITLE9=96 Tears [Mono]
TTITLE10=Come On In [Mono]
TTITLE11=Hey Joe [Mono]
TTITLE12=Double Yellow Line [Mono]
TTITLE13=Absolutely Positively [Mono]
TTITLE14=The Eagle Never Hunts The Fly [Mono]
TTITLE15=I've Loved You [Mono]
TTITLE16=Talk Talk
TTITLE17=Trouble
TTITLE18=Cherry Cherry
TTITLE19=Taxman
TTITLE20=Some Other Drum
TTITLE21=Masculine Intuition
TTITLE22=The People In Me
TTITLE23=CC Rider
TTITLE24=Wrong
TTITLE25=96 Tears
TTITLE26=Come On In
TTITLE27=Hey Joe
EXTD=
EXTT0=
EXTT1=
EXTT2=
EXTT3=
EXTT4=
EXTT5=
EXTT6=
EXTT7=
EXTT8=
EXTT9=
EXTT10=
EXTT11=
EXTT12=
EXTT13=
EXTT14=
EXTT15=
EXTT16=
EXTT17=
EXTT18=
EXTT19=
EXTT20=
EXTT21=
EXTT22=
EXTT23=
EXTT24=
EXTT25=
EXTT26=
EXTT27=
PLAYORDER=
